# xmcd CD database file
#
# Track frame offsets:
#	150
#	35180
#	61099
#	92476
#	118804
#	142420
#	165904
#	190083
#	212174
#	239737
#	265890
#
# Disc length: 3906 seconds
#
# Revision: 0
# Processed by: cddbd v1.5.1PL0 Copyright (c) Steve Scherf et al.
# Submitted via: CDex 1.50beta9
#
DISCID=a40f400b
DTITLE=Leslie Alexandra - Jazz Du Jour
DYEAR=2003
DGENRE=Jazz
TTITLE0=Sugar
TTITLE1=Bluesette
TTITLE2='Round Midnight
TTITLE3=Beyond the Borderline (Instrumental)
TTITLE4=Beyond the Borderline
TTITLE5=Baby, It's Cold Outside
TTITLE6=A Felicidade
TTITLE7=I Thought About You
TTITLE8=Aqua de Beber
TTITLE9=Ask Me Now
TTITLE10=Cherokee
EXTD=YEAR: 2003
EXTT0=
EXTT1=
EXTT2=
EXTT3=
EXTT4=
EXTT5=
EXTT6=
EXTT7=
EXTT8=
EXTT9=
EXTT10=
PLAYORDER=
